<?xml version="1.0" encoding="utf-8"?>
<!-- Generator: Adobe Illustrator 23.0.1, SVG Export Plug-In . SVG Version: 6.00 Build 0)  -->
<svg version="1.1" id="Layer_1" xmlns="http://www.w3.org/2000/svg" xmlns:xlink="http://www.w3.org/1999/xlink" x="0px" y="0px"
	 viewBox="0 0 32.9 32.3" style="enable-background:new 0 0 32.9 32.3;" xml:space="preserve">
<style type="text/css">
	.st0{fill:#1c90d8;}
</style>
<path class="st0" d="M8.2,29.5H2.3V10.7h5.9V29.5z M5.1,8.3L5.1,8.3C2.9,8.3,1.5,6.9,1.5,5c0-1.9,1.4-3.3,3.6-3.3
	c2.2,0,3.5,1.4,3.6,3.3C8.7,6.8,7.3,8.3,5.1,8.3z M31.7,29.5h-6.7v-9.8c0-2.6-1-4.3-3.3-4.3c-1.8,0-2.7,1.2-3.2,2.3
	c-0.2,0.4-0.1,1-0.1,1.5v10.2h-6.6c0,0,0.1-17.3,0-18.9h6.6v3c0.4-1.3,2.5-3.1,5.9-3.1c4.2,0,7.5,2.7,7.5,8.6V29.5z"/>
</svg>
