<?xml version="1.0" encoding="utf-8"?>
<!-- Generator: Adobe Illustrator 23.0.1, SVG Export Plug-In . SVG Version: 6.00 Build 0)  -->
<svg version="1.1" id="Layer_1" xmlns="http://www.w3.org/2000/svg" xmlns:xlink="http://www.w3.org/1999/xlink" x="0px" y="0px"
	 viewBox="0 0 32.9 32.3" style="enable-background:new 0 0 32.9 32.3;" xml:space="preserve">
<style type="text/css">
	.st0{fill:#1c90d8;}
</style>
<g>
	<g>
		<path class="st0" d="M31,6.1c-1.1,0.5-2.2,0.8-3.4,1c1.2-0.8,2.2-2,2.6-3.5c-1.1,0.7-2.4,1.2-3.7,1.5c-1.1-1.2-2.6-2-4.3-2
			c-3.2,0-5.9,2.8-5.9,6.3c0,0.5,0.1,1,0.1,1.4c-4.9-0.3-9.2-2.8-12.1-6.6c-0.5,0.9-0.8,2-0.8,3.2c0,2.2,1,4.1,2.6,5.3
			c-1,0-1.9-0.3-2.7-0.8c0,0,0,0.1,0,0.1c0,3.1,2,5.6,4.7,6.2c-0.5,0.1-1,0.2-1.6,0.2c-0.4,0-0.7,0-1.1-0.1c0.7,2.5,2.9,4.4,5.5,4.4
			c-2,1.7-4.5,2.7-7.3,2.7c-0.5,0-0.9,0-1.4-0.1c2.6,1.8,5.7,2.9,9,2.9c10.8,0,16.7-9.6,16.7-18c0-0.3,0-0.5,0-0.8
			C29.2,8.5,30.2,7.3,31,6.1z"/>
	</g>
</g>
</svg>
