<svg xmlns="http://www.w3.org/2000/svg" viewBox="0 0 1440 320"><linearGradient id="lgrad" x1="50%" y1="100%" x2="50%" y2="0%" ><stop offset="0%" style="stop-color:rgb(219,219,219);stop-opacity:0" /><stop offset="100%" style="stop-color:rgb(28,144,216);stop-opacity:1" /></linearGradient><path fill="url(#lgrad)" fill-opacity="1" d="M0,96L60,112C120,128,240,160,360,160C480,160,600,128,720,96C840,64,960,32,1080,37.3C1200,43,1320,85,1380,106.7L1440,128L1440,320L1380,320C1320,320,1200,320,1080,320C960,320,840,320,720,320C600,320,480,320,360,320C240,320,120,320,60,320L0,320Z"/></svg>